<svg id="Layer_1" data-name="Layer 1" xmlns="http://www.w3.org/2000/svg" xmlns:xlink="http://www.w3.org/1999/xlink" viewBox="0 0 204 204"><defs><style>.cls-1{fill:url(#linear-gradient);}.cls-2{fill:#fff;}</style><linearGradient id="linear-gradient" x1="-0.00023" y1="102" x2="204.00015" y2="102" gradientUnits="userSpaceOnUse"><stop offset="0" stop-color="#03508e"/><stop offset="1" stop-color="#0580e5"/></linearGradient></defs><path class="cls-1" d="M187.639,69.9021c5.453-2.0435,11.587.7122,13.057,6.3463a101.99767,101.99767,0,1,1-25.905-45.7018c4.078,4.1554,3.292,10.8339-1.262,14.4624s-11.144,2.8182-15.334-1.2258a80.91306,80.91306,0,1,0,22.62,39.9048C179.497,78.0164,182.187,71.9457,187.639,69.9021Z"/><path class="cls-2" d="M66.08,99.16c0,4.644,3.24,8.352,7.956,8.352a2.79775,2.79775,0,0,0,1.296-.216L69.896,115h7.632l5.544-8.82a14.25342,14.25342,0,0,0,2.304-7.2c0-5.256-4.068-9.18-9.648-9.18A9.27712,9.27712,0,0,0,66.08,99.16Zm6.336-.252a3.33084,3.33084,0,1,1,3.348,3.276A3.25166,3.25166,0,0,1,72.416,98.908Zm21.9811,6.012a3.4026,3.4026,0,0,1,2.916-1.548,3.01811,3.01811,0,0,1,3.1679,3.06,3.10548,3.10548,0,0,1-3.1679,3.168,2.85423,2.85423,0,0,1-3.06-2.376h-6.336c.108,5.004,3.78,8.28,9.504,8.28a9.21933,9.21933,0,0,0,9.4679-9.396,7.8657,7.8657,0,0,0-7.9199-8.172,7.49026,7.49026,0,0,0-4.104,1.152l.468-3.168h9.8279V90.304H90.3651l-1.836,13.392Zm26.9599-8.892a6.34122,6.34122,0,1,0-6.336,6.084A6.13567,6.13567,0,0,0,121.357,96.028Zm-4.248,0a2.08831,2.08831,0,1,1-2.088-2.124A2.03293,2.03293,0,0,1,117.109,96.028Zm17.748-5.76h-5.508L110.989,115h5.508ZM124.489,109.24a6.34122,6.34122,0,1,0,6.336-6.084A6.13567,6.13567,0,0,0,124.489,109.24Zm4.248,0a2.0883,2.0883,0,1,1,2.088,2.124A2.03292,2.03292,0,0,1,128.737,109.24Z"/></svg>